<mxfile host="Electron" agent="Mozilla/5.0 (Windows NT 10.0; Win64; x64) AppleWebKit/537.36 (KHTML, like Gecko) draw.io/25.0.2 Chrome/128.0.6613.186 Electron/32.2.5 Safari/537.36" version="25.0.2">
  <diagram name="PÃ¡gina-1" id="gYQ1HZcJavZhrJtzkpCB">
    <mxGraphModel dx="1290" dy="621" grid="1" gridSize="10" guides="1" tooltips="1" connect="1" arrows="1" fold="1" page="1" pageScale="1" pageWidth="827" pageHeight="1169" math="0" shadow="0">
      <root>
        <mxCell id="0" />
        <mxCell id="1" parent="0" />
        <mxCell id="0VuUMqrewI8_WAnKQ9cv-1" value="Actor" style="shape=umlActor;verticalLabelPosition=bottom;verticalAlign=top;html=1;outlineConnect=0;" vertex="1" parent="1">
          <mxGeometry x="150" y="210" width="30" height="60" as="geometry" />
        </mxCell>
        <mxCell id="0VuUMqrewI8_WAnKQ9cv-2" value="" style="endArrow=none;html=1;rounded=0;exitX=0.5;exitY=0.5;exitDx=0;exitDy=0;exitPerimeter=0;" edge="1" parent="1" source="0VuUMqrewI8_WAnKQ9cv-1" target="0VuUMqrewI8_WAnKQ9cv-3">
          <mxGeometry width="50" height="50" relative="1" as="geometry">
            <mxPoint x="200" y="240" as="sourcePoint" />
            <mxPoint x="290" y="210" as="targetPoint" />
          </mxGeometry>
        </mxCell>
        <mxCell id="0VuUMqrewI8_WAnKQ9cv-3" value="crea anuncios" style="ellipse;whiteSpace=wrap;html=1;" vertex="1" parent="1">
          <mxGeometry x="240" y="170" width="120" height="50" as="geometry" />
        </mxCell>
        <mxCell id="0VuUMqrewI8_WAnKQ9cv-6" value="" style="endArrow=none;html=1;rounded=0;" edge="1" parent="1" target="0VuUMqrewI8_WAnKQ9cv-7" source="0VuUMqrewI8_WAnKQ9cv-1">
          <mxGeometry width="50" height="50" relative="1" as="geometry">
            <mxPoint x="210" y="250" as="sourcePoint" />
            <mxPoint x="300" y="220" as="targetPoint" />
          </mxGeometry>
        </mxCell>
        <mxCell id="0VuUMqrewI8_WAnKQ9cv-7" value="guarda anuncios" style="ellipse;whiteSpace=wrap;html=1;" vertex="1" parent="1">
          <mxGeometry x="250" y="230" width="120" height="50" as="geometry" />
        </mxCell>
        <mxCell id="0VuUMqrewI8_WAnKQ9cv-8" value="" style="endArrow=none;html=1;rounded=0;" edge="1" parent="1" target="0VuUMqrewI8_WAnKQ9cv-9" source="0VuUMqrewI8_WAnKQ9cv-1">
          <mxGeometry width="50" height="50" relative="1" as="geometry">
            <mxPoint x="214" y="350" as="sourcePoint" />
            <mxPoint x="304" y="320" as="targetPoint" />
          </mxGeometry>
        </mxCell>
        <mxCell id="0VuUMqrewI8_WAnKQ9cv-9" value="desactiva anuncios" style="ellipse;whiteSpace=wrap;html=1;" vertex="1" parent="1">
          <mxGeometry x="240" y="290" width="120" height="50" as="geometry" />
        </mxCell>
        <mxCell id="0VuUMqrewI8_WAnKQ9cv-10" value="" style="endArrow=none;html=1;rounded=0;" edge="1" parent="1" target="0VuUMqrewI8_WAnKQ9cv-11">
          <mxGeometry width="50" height="50" relative="1" as="geometry">
            <mxPoint x="170" y="260" as="sourcePoint" />
            <mxPoint x="270" y="365" as="targetPoint" />
          </mxGeometry>
        </mxCell>
        <mxCell id="0VuUMqrewI8_WAnKQ9cv-11" value="edita anuncios" style="ellipse;whiteSpace=wrap;html=1;" vertex="1" parent="1">
          <mxGeometry x="230" y="355" width="120" height="50" as="geometry" />
        </mxCell>
        <mxCell id="0VuUMqrewI8_WAnKQ9cv-12" value="Usuario_vendedor" style="text;html=1;align=center;verticalAlign=middle;resizable=0;points=[];autosize=1;strokeColor=none;fillColor=none;" vertex="1" parent="1">
          <mxGeometry x="90" y="290" width="120" height="30" as="geometry" />
        </mxCell>
        <mxCell id="0VuUMqrewI8_WAnKQ9cv-13" value="Actor" style="shape=umlActor;verticalLabelPosition=bottom;verticalAlign=top;html=1;outlineConnect=0;" vertex="1" parent="1">
          <mxGeometry x="620" y="240" width="30" height="60" as="geometry" />
        </mxCell>
        <mxCell id="0VuUMqrewI8_WAnKQ9cv-14" value="" style="endArrow=none;html=1;rounded=0;" edge="1" parent="1" target="0VuUMqrewI8_WAnKQ9cv-15">
          <mxGeometry width="50" height="50" relative="1" as="geometry">
            <mxPoint x="620" y="270" as="sourcePoint" />
            <mxPoint x="470" y="240" as="targetPoint" />
          </mxGeometry>
        </mxCell>
        <mxCell id="0VuUMqrewI8_WAnKQ9cv-15" value="mira anuncios" style="ellipse;whiteSpace=wrap;html=1;" vertex="1" parent="1">
          <mxGeometry x="430" y="230" width="120" height="50" as="geometry" />
        </mxCell>
        <mxCell id="0VuUMqrewI8_WAnKQ9cv-16" value="" style="endArrow=none;html=1;rounded=0;" edge="1" parent="1" target="0VuUMqrewI8_WAnKQ9cv-17" source="0VuUMqrewI8_WAnKQ9cv-13">
          <mxGeometry width="50" height="50" relative="1" as="geometry">
            <mxPoint x="405" y="330" as="sourcePoint" />
            <mxPoint x="495" y="300" as="targetPoint" />
          </mxGeometry>
        </mxCell>
        <mxCell id="0VuUMqrewI8_WAnKQ9cv-17" value="guarda favoritos" style="ellipse;whiteSpace=wrap;html=1;" vertex="1" parent="1">
          <mxGeometry x="455" y="290" width="120" height="50" as="geometry" />
        </mxCell>
        <mxCell id="0VuUMqrewI8_WAnKQ9cv-18" value="" style="endArrow=none;html=1;rounded=0;" edge="1" parent="1" target="0VuUMqrewI8_WAnKQ9cv-19">
          <mxGeometry width="50" height="50" relative="1" as="geometry">
            <mxPoint x="610" y="310" as="sourcePoint" />
            <mxPoint x="530" y="400" as="targetPoint" />
          </mxGeometry>
        </mxCell>
        <mxCell id="0VuUMqrewI8_WAnKQ9cv-19" value="envia emails" style="ellipse;whiteSpace=wrap;html=1;" vertex="1" parent="1">
          <mxGeometry x="470" y="350" width="120" height="50" as="geometry" />
        </mxCell>
        <mxCell id="0VuUMqrewI8_WAnKQ9cv-20" value="" style="endArrow=none;html=1;rounded=0;" edge="1" parent="1" target="0VuUMqrewI8_WAnKQ9cv-21">
          <mxGeometry width="50" height="50" relative="1" as="geometry">
            <mxPoint x="630" y="360" as="sourcePoint" />
            <mxPoint x="590" y="410" as="targetPoint" />
          </mxGeometry>
        </mxCell>
        <mxCell id="0VuUMqrewI8_WAnKQ9cv-21" value="elimina favoritos" style="ellipse;whiteSpace=wrap;html=1;" vertex="1" parent="1">
          <mxGeometry x="550" y="400" width="120" height="50" as="geometry" />
        </mxCell>
        <mxCell id="0VuUMqrewI8_WAnKQ9cv-22" value="" style="endArrow=none;html=1;rounded=0;" edge="1" parent="1" target="0VuUMqrewI8_WAnKQ9cv-23">
          <mxGeometry width="50" height="50" relative="1" as="geometry">
            <mxPoint x="600" y="250" as="sourcePoint" />
            <mxPoint x="750" y="230" as="targetPoint" />
          </mxGeometry>
        </mxCell>
        <mxCell id="0VuUMqrewI8_WAnKQ9cv-23" value="edita su perfil" style="ellipse;whiteSpace=wrap;html=1;" vertex="1" parent="1">
          <mxGeometry x="454" y="170" width="120" height="50" as="geometry" />
        </mxCell>
        <mxCell id="0VuUMqrewI8_WAnKQ9cv-24" value="Usuario_comprador" style="text;html=1;align=center;verticalAlign=middle;resizable=0;points=[];autosize=1;strokeColor=none;fillColor=none;" vertex="1" parent="1">
          <mxGeometry x="590" y="320" width="130" height="30" as="geometry" />
        </mxCell>
        <mxCell id="0VuUMqrewI8_WAnKQ9cv-25" value="Actor" style="shape=umlActor;verticalLabelPosition=bottom;verticalAlign=top;html=1;outlineConnect=0;" vertex="1" parent="1">
          <mxGeometry x="135" y="460" width="30" height="60" as="geometry" />
        </mxCell>
        <mxCell id="0VuUMqrewI8_WAnKQ9cv-26" value="Administrador" style="text;html=1;align=center;verticalAlign=middle;resizable=0;points=[];autosize=1;strokeColor=none;fillColor=none;" vertex="1" parent="1">
          <mxGeometry x="100" y="540" width="100" height="30" as="geometry" />
        </mxCell>
        <mxCell id="0VuUMqrewI8_WAnKQ9cv-27" value="edita usuarios" style="ellipse;whiteSpace=wrap;html=1;" vertex="1" parent="1">
          <mxGeometry x="265" y="440" width="120" height="50" as="geometry" />
        </mxCell>
        <mxCell id="0VuUMqrewI8_WAnKQ9cv-28" value="" style="endArrow=none;html=1;rounded=0;" edge="1" parent="1" target="0VuUMqrewI8_WAnKQ9cv-29">
          <mxGeometry width="50" height="50" relative="1" as="geometry">
            <mxPoint x="205" y="512" as="sourcePoint" />
            <mxPoint x="325" y="490" as="targetPoint" />
          </mxGeometry>
        </mxCell>
        <mxCell id="0VuUMqrewI8_WAnKQ9cv-29" value="edita anuncios" style="ellipse;whiteSpace=wrap;html=1;" vertex="1" parent="1">
          <mxGeometry x="275" y="500" width="120" height="50" as="geometry" />
        </mxCell>
        <mxCell id="0VuUMqrewI8_WAnKQ9cv-30" value="" style="endArrow=none;html=1;rounded=0;" edge="1" parent="1" target="0VuUMqrewI8_WAnKQ9cv-31">
          <mxGeometry width="50" height="50" relative="1" as="geometry">
            <mxPoint x="205" y="518" as="sourcePoint" />
            <mxPoint x="329" y="590" as="targetPoint" />
          </mxGeometry>
        </mxCell>
        <mxCell id="0VuUMqrewI8_WAnKQ9cv-31" value="desactiva anuncios" style="ellipse;whiteSpace=wrap;html=1;" vertex="1" parent="1">
          <mxGeometry x="265" y="560" width="120" height="50" as="geometry" />
        </mxCell>
        <mxCell id="0VuUMqrewI8_WAnKQ9cv-32" value="des/activacion usuarios" style="ellipse;whiteSpace=wrap;html=1;" vertex="1" parent="1">
          <mxGeometry x="230" y="630" width="120" height="50" as="geometry" />
        </mxCell>
        <mxCell id="0VuUMqrewI8_WAnKQ9cv-33" value="" style="endArrow=none;html=1;rounded=0;" edge="1" parent="1" target="0VuUMqrewI8_WAnKQ9cv-27">
          <mxGeometry width="50" height="50" relative="1" as="geometry">
            <mxPoint x="200" y="480" as="sourcePoint" />
            <mxPoint x="240" y="450" as="targetPoint" />
          </mxGeometry>
        </mxCell>
        <mxCell id="0VuUMqrewI8_WAnKQ9cv-34" value="" style="endArrow=none;html=1;rounded=0;" edge="1" parent="1">
          <mxGeometry width="50" height="50" relative="1" as="geometry">
            <mxPoint x="170" y="630" as="sourcePoint" />
            <mxPoint x="160" y="580" as="targetPoint" />
          </mxGeometry>
        </mxCell>
        <mxCell id="0VuUMqrewI8_WAnKQ9cv-35" value="" style="endArrow=none;html=1;rounded=0;" edge="1" parent="1" source="0VuUMqrewI8_WAnKQ9cv-32">
          <mxGeometry width="50" height="50" relative="1" as="geometry">
            <mxPoint x="250" y="640" as="sourcePoint" />
            <mxPoint x="220" y="540" as="targetPoint" />
          </mxGeometry>
        </mxCell>
        <mxCell id="0VuUMqrewI8_WAnKQ9cv-36" value="borra usuarios" style="ellipse;whiteSpace=wrap;html=1;" vertex="1" parent="1">
          <mxGeometry x="130" y="630" width="90" height="50" as="geometry" />
        </mxCell>
        <mxCell id="0VuUMqrewI8_WAnKQ9cv-37" value="" style="endArrow=none;html=1;rounded=0;" edge="1" parent="1">
          <mxGeometry width="50" height="50" relative="1" as="geometry">
            <mxPoint x="70" y="635" as="sourcePoint" />
            <mxPoint x="110" y="580" as="targetPoint" />
          </mxGeometry>
        </mxCell>
        <mxCell id="0VuUMqrewI8_WAnKQ9cv-38" value="crea usuarios" style="ellipse;whiteSpace=wrap;html=1;" vertex="1" parent="1">
          <mxGeometry x="30" y="635" width="90" height="50" as="geometry" />
        </mxCell>
        <mxCell id="0VuUMqrewI8_WAnKQ9cv-39" value="" style="endArrow=none;html=1;rounded=0;" edge="1" parent="1" target="0VuUMqrewI8_WAnKQ9cv-40">
          <mxGeometry width="50" height="50" relative="1" as="geometry">
            <mxPoint x="150" y="450" as="sourcePoint" />
            <mxPoint x="180" y="445" as="targetPoint" />
          </mxGeometry>
        </mxCell>
        <mxCell id="0VuUMqrewI8_WAnKQ9cv-40" value="crea usuarios" style="ellipse;whiteSpace=wrap;html=1;" vertex="1" parent="1">
          <mxGeometry x="110" y="390" width="90" height="50" as="geometry" />
        </mxCell>
        <mxCell id="0VuUMqrewI8_WAnKQ9cv-41" value="" style="endArrow=none;html=1;rounded=0;" edge="1" parent="1" source="0VuUMqrewI8_WAnKQ9cv-42">
          <mxGeometry width="50" height="50" relative="1" as="geometry">
            <mxPoint x="50" y="460" as="sourcePoint" />
            <mxPoint x="110" y="480" as="targetPoint" />
          </mxGeometry>
        </mxCell>
        <mxCell id="0VuUMqrewI8_WAnKQ9cv-42" value="crea anuncios" style="ellipse;whiteSpace=wrap;html=1;" vertex="1" parent="1">
          <mxGeometry x="10" y="400" width="90" height="45" as="geometry" />
        </mxCell>
        <mxCell id="0VuUMqrewI8_WAnKQ9cv-43" value="" style="endArrow=classic;html=1;rounded=0;" edge="1" parent="1">
          <mxGeometry width="50" height="50" relative="1" as="geometry">
            <mxPoint x="130" y="370" as="sourcePoint" />
            <mxPoint x="130" y="340" as="targetPoint" />
          </mxGeometry>
        </mxCell>
        <mxCell id="0VuUMqrewI8_WAnKQ9cv-44" value="" style="endArrow=classic;html=1;rounded=0;" edge="1" parent="1">
          <mxGeometry width="50" height="50" relative="1" as="geometry">
            <mxPoint x="370" y="290" as="sourcePoint" />
            <mxPoint x="430" y="290" as="targetPoint" />
          </mxGeometry>
        </mxCell>
        <mxCell id="0VuUMqrewI8_WAnKQ9cv-45" value="" style="endArrow=classic;html=1;rounded=0;" edge="1" parent="1">
          <mxGeometry width="50" height="50" relative="1" as="geometry">
            <mxPoint x="450" y="350" as="sourcePoint" />
            <mxPoint x="380" y="340" as="targetPoint" />
          </mxGeometry>
        </mxCell>
        <mxCell id="0VuUMqrewI8_WAnKQ9cv-46" value="" style="endArrow=none;html=1;rounded=0;" edge="1" parent="1" source="0VuUMqrewI8_WAnKQ9cv-47">
          <mxGeometry width="50" height="50" relative="1" as="geometry">
            <mxPoint x="75" y="190" as="sourcePoint" />
            <mxPoint x="135" y="210" as="targetPoint" />
          </mxGeometry>
        </mxCell>
        <mxCell id="0VuUMqrewI8_WAnKQ9cv-47" value="reserva anuncios" style="ellipse;whiteSpace=wrap;html=1;" vertex="1" parent="1">
          <mxGeometry x="35" y="130" width="90" height="45" as="geometry" />
        </mxCell>
        <mxCell id="0VuUMqrewI8_WAnKQ9cv-48" value="" style="endArrow=none;html=1;rounded=0;" edge="1" parent="1" source="0VuUMqrewI8_WAnKQ9cv-49">
          <mxGeometry width="50" height="50" relative="1" as="geometry">
            <mxPoint x="45" y="260" as="sourcePoint" />
            <mxPoint x="120" y="240" as="targetPoint" />
          </mxGeometry>
        </mxCell>
        <mxCell id="0VuUMqrewI8_WAnKQ9cv-49" value="vende inmueble" style="ellipse;whiteSpace=wrap;html=1;" vertex="1" parent="1">
          <mxGeometry x="5" y="200" width="90" height="45" as="geometry" />
        </mxCell>
      </root>
    </mxGraphModel>
  </diagram>
</mxfile>
